<?xml version="1.0" encoding="utf-8" standalone="no"?>
<!DOCTYPE svg PUBLIC "-//W3C//DTD SVG 1.1//EN"
  "http://www.w3.org/Graphics/SVG/1.1/DTD/svg11.dtd">
<svg xmlns:xlink="http://www.w3.org/1999/xlink" width="720pt" height="288pt" viewBox="0 0 720 288" xmlns="http://www.w3.org/2000/svg" version="1.1">
 <metadata>
  <rdf:RDF xmlns:dc="http://purl.org/dc/elements/1.1/" xmlns:cc="http://creativecommons.org/ns#" xmlns:rdf="http://www.w3.org/1999/02/22-rdf-syntax-ns#">
   <cc:Work>
    <dc:type rdf:resource="http://purl.org/dc/dcmitype/StillImage"/>
    <dc:date>2025-04-20T22:55:35.690026</dc:date>
    <dc:format>image/svg+xml</dc:format>
    <dc:creator>
     <cc:Agent>
      <dc:title>Matplotlib v3.7.1, https://matplotlib.org/</dc:title>
     </cc:Agent>
    </dc:creator>
   </cc:Work>
  </rdf:RDF>
 </metadata>
 <defs>
  <style type="text/css">*{stroke-linejoin: round; stroke-linecap: butt}</style>
 </defs>
 <g id="figure_1">
  <g id="patch_1">
   <path d="M 0 288 
L 720 288 
L 720 0 
L 0 0 
z
" style="fill: #ffffff"/>
  </g>
  <g id="axes_1">
   <g id="patch_2">
    <path d="M 90 256.32 
L 648 256.32 
L 648 34.56 
L 90 34.56 
z
" style="fill: #ffffff"/>
   </g>
   <g id="matplotlib.axis_1">
    <g id="xtick_1">
     <g id="line2d_1">
      <defs>
       <path id="m59b239b44c" d="M 0 0 
L 0 3.5 
" style="stroke: #000000; stroke-width: 0.8"/>
      </defs>
      <g>
       <use xlink:href="#m59b239b44c" x="115.363636" y="256.32" style="stroke: #000000; stroke-width: 0.8"/>
      </g>
     </g>
     <g id="text_1">
      <!-- 0 -->
      <g transform="translate(110.914886 274.7725) scale(0.16 -0.16)">
       <defs>
        <path id="ArialMT-30" d="M 266 2259 
Q 266 3072 433 3567 
Q 600 4063 929 4331 
Q 1259 4600 1759 4600 
Q 2128 4600 2406 4451 
Q 2684 4303 2865 4023 
Q 3047 3744 3150 3342 
Q 3253 2941 3253 2259 
Q 3253 1453 3087 958 
Q 2922 463 2592 192 
Q 2263 -78 1759 -78 
Q 1097 -78 719 397 
Q 266 969 266 2259 
z
M 844 2259 
Q 844 1131 1108 757 
Q 1372 384 1759 384 
Q 2147 384 2411 759 
Q 2675 1134 2675 2259 
Q 2675 3391 2411 3762 
Q 2147 4134 1753 4134 
Q 1366 4134 1134 3806 
Q 844 3388 844 2259 
z
" transform="scale(0.015625)"/>
       </defs>
       <use xlink:href="#ArialMT-30"/>
      </g>
     </g>
    </g>
    <g id="xtick_2">
     <g id="line2d_2">
      <g>
       <use xlink:href="#m59b239b44c" x="214.634229" y="256.32" style="stroke: #000000; stroke-width: 0.8"/>
      </g>
     </g>
     <g id="text_2">
      <!-- 100 -->
      <g transform="translate(201.287979 274.7725) scale(0.16 -0.16)">
       <defs>
        <path id="ArialMT-31" d="M 2384 0 
L 1822 0 
L 1822 3584 
Q 1619 3391 1289 3197 
Q 959 3003 697 2906 
L 697 3450 
Q 1169 3672 1522 3987 
Q 1875 4303 2022 4600 
L 2384 4600 
L 2384 0 
z
" transform="scale(0.015625)"/>
       </defs>
       <use xlink:href="#ArialMT-31"/>
       <use xlink:href="#ArialMT-30" x="55.615234"/>
       <use xlink:href="#ArialMT-30" x="111.230469"/>
      </g>
     </g>
    </g>
    <g id="xtick_3">
     <g id="line2d_3">
      <g>
       <use xlink:href="#m59b239b44c" x="313.904821" y="256.32" style="stroke: #000000; stroke-width: 0.8"/>
      </g>
     </g>
     <g id="text_3">
      <!-- 200 -->
      <g transform="translate(300.558571 274.7725) scale(0.16 -0.16)">
       <defs>
        <path id="ArialMT-32" d="M 3222 541 
L 3222 0 
L 194 0 
Q 188 203 259 391 
Q 375 700 629 1000 
Q 884 1300 1366 1694 
Q 2113 2306 2375 2664 
Q 2638 3022 2638 3341 
Q 2638 3675 2398 3904 
Q 2159 4134 1775 4134 
Q 1369 4134 1125 3890 
Q 881 3647 878 3216 
L 300 3275 
Q 359 3922 746 4261 
Q 1134 4600 1788 4600 
Q 2447 4600 2831 4234 
Q 3216 3869 3216 3328 
Q 3216 3053 3103 2787 
Q 2991 2522 2730 2228 
Q 2469 1934 1863 1422 
Q 1356 997 1212 845 
Q 1069 694 975 541 
L 3222 541 
z
" transform="scale(0.015625)"/>
       </defs>
       <use xlink:href="#ArialMT-32"/>
       <use xlink:href="#ArialMT-30" x="55.615234"/>
       <use xlink:href="#ArialMT-30" x="111.230469"/>
      </g>
     </g>
    </g>
    <g id="xtick_4">
     <g id="line2d_4">
      <g>
       <use xlink:href="#m59b239b44c" x="413.175414" y="256.32" style="stroke: #000000; stroke-width: 0.8"/>
      </g>
     </g>
     <g id="text_4">
      <!-- 300 -->
      <g transform="translate(399.829164 274.7725) scale(0.16 -0.16)">
       <defs>
        <path id="ArialMT-33" d="M 269 1209 
L 831 1284 
Q 928 806 1161 595 
Q 1394 384 1728 384 
Q 2125 384 2398 659 
Q 2672 934 2672 1341 
Q 2672 1728 2419 1979 
Q 2166 2231 1775 2231 
Q 1616 2231 1378 2169 
L 1441 2663 
Q 1497 2656 1531 2656 
Q 1891 2656 2178 2843 
Q 2466 3031 2466 3422 
Q 2466 3731 2256 3934 
Q 2047 4138 1716 4138 
Q 1388 4138 1169 3931 
Q 950 3725 888 3313 
L 325 3413 
Q 428 3978 793 4289 
Q 1159 4600 1703 4600 
Q 2078 4600 2393 4439 
Q 2709 4278 2876 4000 
Q 3044 3722 3044 3409 
Q 3044 3113 2884 2869 
Q 2725 2625 2413 2481 
Q 2819 2388 3044 2092 
Q 3269 1797 3269 1353 
Q 3269 753 2831 336 
Q 2394 -81 1725 -81 
Q 1122 -81 723 278 
Q 325 638 269 1209 
z
" transform="scale(0.015625)"/>
       </defs>
       <use xlink:href="#ArialMT-33"/>
       <use xlink:href="#ArialMT-30" x="55.615234"/>
       <use xlink:href="#ArialMT-30" x="111.230469"/>
      </g>
     </g>
    </g>
    <g id="xtick_5">
     <g id="line2d_5">
      <g>
       <use xlink:href="#m59b239b44c" x="512.446006" y="256.32" style="stroke: #000000; stroke-width: 0.8"/>
      </g>
     </g>
     <g id="text_5">
      <!-- 400 -->
      <g transform="translate(499.099756 274.7725) scale(0.16 -0.16)">
       <defs>
        <path id="ArialMT-34" d="M 2069 0 
L 2069 1097 
L 81 1097 
L 81 1613 
L 2172 4581 
L 2631 4581 
L 2631 1613 
L 3250 1613 
L 3250 1097 
L 2631 1097 
L 2631 0 
L 2069 0 
z
M 2069 1613 
L 2069 3678 
L 634 1613 
L 2069 1613 
z
" transform="scale(0.015625)"/>
       </defs>
       <use xlink:href="#ArialMT-34"/>
       <use xlink:href="#ArialMT-30" x="55.615234"/>
       <use xlink:href="#ArialMT-30" x="111.230469"/>
      </g>
     </g>
    </g>
    <g id="xtick_6">
     <g id="line2d_6">
      <g>
       <use xlink:href="#m59b239b44c" x="611.716598" y="256.32" style="stroke: #000000; stroke-width: 0.8"/>
      </g>
     </g>
     <g id="text_6">
      <!-- 500 -->
      <g transform="translate(598.370348 274.7725) scale(0.16 -0.16)">
       <defs>
        <path id="ArialMT-35" d="M 266 1200 
L 856 1250 
Q 922 819 1161 601 
Q 1400 384 1738 384 
Q 2144 384 2425 690 
Q 2706 997 2706 1503 
Q 2706 1984 2436 2262 
Q 2166 2541 1728 2541 
Q 1456 2541 1237 2417 
Q 1019 2294 894 2097 
L 366 2166 
L 809 4519 
L 3088 4519 
L 3088 3981 
L 1259 3981 
L 1013 2750 
Q 1425 3038 1878 3038 
Q 2478 3038 2890 2622 
Q 3303 2206 3303 1553 
Q 3303 931 2941 478 
Q 2500 -78 1738 -78 
Q 1113 -78 717 272 
Q 322 622 266 1200 
z
" transform="scale(0.015625)"/>
       </defs>
       <use xlink:href="#ArialMT-35"/>
       <use xlink:href="#ArialMT-30" x="55.615234"/>
       <use xlink:href="#ArialMT-30" x="111.230469"/>
      </g>
     </g>
    </g>
   </g>
   <g id="matplotlib.axis_2">
    <g id="ytick_1">
     <g id="line2d_7">
      <defs>
       <path id="ma7ab37976a" d="M 0 0 
L -3.5 0 
" style="stroke: #000000; stroke-width: 0.8"/>
      </defs>
      <g>
       <use xlink:href="#ma7ab37976a" x="90" y="245.9598" style="stroke: #000000; stroke-width: 0.8"/>
      </g>
     </g>
     <g id="text_7">
      <!-- 60.00 -->
      <g transform="translate(42.965 251.68605) scale(0.16 -0.16)">
       <defs>
        <path id="ArialMT-36" d="M 3184 3459 
L 2625 3416 
Q 2550 3747 2413 3897 
Q 2184 4138 1850 4138 
Q 1581 4138 1378 3988 
Q 1113 3794 959 3422 
Q 806 3050 800 2363 
Q 1003 2672 1297 2822 
Q 1591 2972 1913 2972 
Q 2475 2972 2870 2558 
Q 3266 2144 3266 1488 
Q 3266 1056 3080 686 
Q 2894 316 2569 119 
Q 2244 -78 1831 -78 
Q 1128 -78 684 439 
Q 241 956 241 2144 
Q 241 3472 731 4075 
Q 1159 4600 1884 4600 
Q 2425 4600 2770 4297 
Q 3116 3994 3184 3459 
z
M 888 1484 
Q 888 1194 1011 928 
Q 1134 663 1356 523 
Q 1578 384 1822 384 
Q 2178 384 2434 671 
Q 2691 959 2691 1453 
Q 2691 1928 2437 2201 
Q 2184 2475 1800 2475 
Q 1419 2475 1153 2201 
Q 888 1928 888 1484 
z
" transform="scale(0.015625)"/>
        <path id="ArialMT-2e" d="M 581 0 
L 581 641 
L 1222 641 
L 1222 0 
L 581 0 
z
" transform="scale(0.015625)"/>
       </defs>
       <use xlink:href="#ArialMT-36"/>
       <use xlink:href="#ArialMT-30" x="55.615234"/>
       <use xlink:href="#ArialMT-2e" x="111.230469"/>
       <use xlink:href="#ArialMT-30" x="139.013672"/>
       <use xlink:href="#ArialMT-30" x="194.628906"/>
      </g>
     </g>
    </g>
    <g id="ytick_2">
     <g id="line2d_8">
      <g>
       <use xlink:href="#ma7ab37976a" x="90" y="206.6382" style="stroke: #000000; stroke-width: 0.8"/>
      </g>
     </g>
     <g id="text_8">
      <!-- 60.25 -->
      <g transform="translate(42.965 212.36445) scale(0.16 -0.16)">
       <use xlink:href="#ArialMT-36"/>
       <use xlink:href="#ArialMT-30" x="55.615234"/>
       <use xlink:href="#ArialMT-2e" x="111.230469"/>
       <use xlink:href="#ArialMT-32" x="139.013672"/>
       <use xlink:href="#ArialMT-35" x="194.628906"/>
      </g>
     </g>
    </g>
    <g id="ytick_3">
     <g id="line2d_9">
      <g>
       <use xlink:href="#ma7ab37976a" x="90" y="167.3166" style="stroke: #000000; stroke-width: 0.8"/>
      </g>
     </g>
     <g id="text_9">
      <!-- 60.50 -->
      <g transform="translate(42.965 173.04285) scale(0.16 -0.16)">
       <use xlink:href="#ArialMT-36"/>
       <use xlink:href="#ArialMT-30" x="55.615234"/>
       <use xlink:href="#ArialMT-2e" x="111.230469"/>
       <use xlink:href="#ArialMT-35" x="139.013672"/>
       <use xlink:href="#ArialMT-30" x="194.628906"/>
      </g>
     </g>
    </g>
    <g id="ytick_4">
     <g id="line2d_10">
      <g>
       <use xlink:href="#ma7ab37976a" x="90" y="127.995" style="stroke: #000000; stroke-width: 0.8"/>
      </g>
     </g>
     <g id="text_10">
      <!-- 60.75 -->
      <g transform="translate(42.965 133.72125) scale(0.16 -0.16)">
       <defs>
        <path id="ArialMT-37" d="M 303 3981 
L 303 4522 
L 3269 4522 
L 3269 4084 
Q 2831 3619 2401 2847 
Q 1972 2075 1738 1259 
Q 1569 684 1522 0 
L 944 0 
Q 953 541 1156 1306 
Q 1359 2072 1739 2783 
Q 2119 3494 2547 3981 
L 303 3981 
z
" transform="scale(0.015625)"/>
       </defs>
       <use xlink:href="#ArialMT-36"/>
       <use xlink:href="#ArialMT-30" x="55.615234"/>
       <use xlink:href="#ArialMT-2e" x="111.230469"/>
       <use xlink:href="#ArialMT-37" x="139.013672"/>
       <use xlink:href="#ArialMT-35" x="194.628906"/>
      </g>
     </g>
    </g>
    <g id="ytick_5">
     <g id="line2d_11">
      <g>
       <use xlink:href="#ma7ab37976a" x="90" y="88.6734" style="stroke: #000000; stroke-width: 0.8"/>
      </g>
     </g>
     <g id="text_11">
      <!-- 61.00 -->
      <g transform="translate(42.965 94.39965) scale(0.16 -0.16)">
       <use xlink:href="#ArialMT-36"/>
       <use xlink:href="#ArialMT-31" x="55.615234"/>
       <use xlink:href="#ArialMT-2e" x="111.230469"/>
       <use xlink:href="#ArialMT-30" x="139.013672"/>
       <use xlink:href="#ArialMT-30" x="194.628906"/>
      </g>
     </g>
    </g>
    <g id="ytick_6">
     <g id="line2d_12">
      <g>
       <use xlink:href="#ma7ab37976a" x="90" y="49.3518" style="stroke: #000000; stroke-width: 0.8"/>
      </g>
     </g>
     <g id="text_12">
      <!-- 61.25 -->
      <g transform="translate(42.965 55.07805) scale(0.16 -0.16)">
       <use xlink:href="#ArialMT-36"/>
       <use xlink:href="#ArialMT-31" x="55.615234"/>
       <use xlink:href="#ArialMT-2e" x="111.230469"/>
       <use xlink:href="#ArialMT-32" x="139.013672"/>
       <use xlink:href="#ArialMT-35" x="194.628906"/>
      </g>
     </g>
    </g>
   </g>
   <g id="line2d_13">
    <path d="M 115.363636 45.3396 
L 116.356342 44.64 
L 117.349048 46.743 
L 118.341754 47.292 
L 119.33446 47.6754 
L 120.327166 46.3068 
L 121.319872 49.2072 
L 123.305284 52.0164 
L 125.290696 54.405 
L 126.283402 56.0646 
L 127.276107 59.0898 
L 128.268813 62.7504 
L 129.261519 65.607 
L 130.254225 69.36 
L 131.246931 71.4402 
L 132.239637 75.162 
L 133.232343 79.6008 
L 134.225049 84.849 
L 135.217755 87.996 
L 137.203167 95.604 
L 138.195873 99.798 
L 139.188579 102.729 
L 140.181284 106.4034 
L 141.17399 111.2196 
L 142.166696 114.5934 
L 144.152108 123.2034 
L 146.13752 134.6982 
L 148.122932 140.9604 
L 149.115638 145.2546 
L 150.108344 148.2102 
L 152.093756 156.0612 
L 153.086461 159.888 
L 154.079167 164.5956 
L 155.071873 168.1764 
L 156.064579 172.5252 
L 157.057285 175.3068 
L 160.035403 185.451 
L 161.028109 189.3402 
L 163.013521 194.2956 
L 164.006227 198.1836 
L 165.991638 203.3952 
L 167.97705 206.0784 
L 168.969756 210.0174 
L 169.962462 212.514 
L 170.955168 213.909 
L 171.947874 214.1928 
L 172.94058 216.255 
L 173.933286 219.0276 
L 174.925992 222.51 
L 175.918698 223.0476 
L 176.911404 223.9944 
L 177.90411 226.629 
L 178.896816 228.6882 
L 181.874933 232.8984 
L 182.867639 232.317 
L 183.860345 233.862 
L 184.853051 236.0412 
L 185.845757 236.454 
L 187.831169 239.0124 
L 188.823875 239.8338 
L 189.816581 241.2654 
L 191.801993 242.8314 
L 192.794698 242.85 
L 193.787404 244.6008 
L 194.78011 245.0208 
L 195.772816 245.0586 
L 196.765522 245.979 
L 197.758228 245.4516 
L 198.750934 246.1962 
L 199.74364 245.4594 
L 200.736346 245.4444 
L 201.729052 244.3494 
L 202.721758 245.5482 
L 203.714464 243.9978 
L 204.70717 244.8852 
L 205.699875 246.24 
L 207.685287 244.3128 
L 208.677993 243.6792 
L 209.670699 243.2886 
L 210.663405 244.6524 
L 211.656111 242.4228 
L 212.648817 241.7202 
L 213.641523 241.7994 
L 214.634229 241.6722 
L 215.626935 240.1686 
L 216.619641 240.6144 
L 217.612347 239.3544 
L 218.605052 238.404 
L 219.597758 236.8602 
L 220.590464 234.3876 
L 221.58317 234.7596 
L 222.575876 233.7708 
L 223.568582 235.0134 
L 224.561288 232.581 
L 225.553994 232.6518 
L 226.5467 230.2698 
L 227.539406 231.225 
L 228.532112 228.9966 
L 229.524818 230.8626 
L 230.517524 230.31 
L 231.510229 229.1526 
L 232.502935 227.4516 
L 233.495641 226.4964 
L 234.488347 226.0542 
L 235.481053 223.6374 
L 236.473759 221.7426 
L 237.466465 222.3648 
L 239.451877 219.8658 
L 240.444583 218.4666 
L 241.437289 217.8792 
L 243.422701 216.309 
L 244.415407 216.2934 
L 245.408112 216.9426 
L 246.400818 216.1938 
L 247.393524 214.5522 
L 248.38623 213.2946 
L 250.371642 211.4874 
L 251.364348 210.7278 
L 252.357054 209.1918 
L 253.34976 209.0466 
L 254.342466 209.415 
L 255.335172 207.1068 
L 256.327878 207.0624 
L 257.320584 205.5684 
L 258.313289 204.6396 
L 259.305995 204.8532 
L 260.298701 201.8436 
L 261.291407 202.0026 
L 262.284113 201.5064 
L 263.276819 199.5804 
L 264.269525 198.2688 
L 265.262231 198.5688 
L 266.254937 200.8692 
L 267.247643 196.9998 
L 268.240349 199.0638 
L 269.233055 197.4474 
L 271.218466 194.883 
L 272.211172 191.8206 
L 273.203878 192.8934 
L 275.18929 189.2802 
L 276.181996 187.7016 
L 277.174702 188.0268 
L 278.167408 187.0506 
L 279.160114 186.4548 
L 280.15282 183.7818 
L 281.145526 184.2774 
L 282.138232 183.1188 
L 283.130938 181.7838 
L 284.123643 179.9814 
L 285.116349 179.4354 
L 286.109055 178.6686 
L 287.101761 177.1308 
L 288.094467 177.3186 
L 289.087173 176.943 
L 290.079879 174.7332 
L 291.072585 175.0566 
L 292.065291 172.9284 
L 293.057997 172.1544 
L 294.050703 170.5572 
L 295.043409 170.2554 
L 296.036115 171.5286 
L 297.02882 170.1894 
L 298.021526 171.5868 
L 299.014232 168.78 
L 300.006938 169.0092 
L 300.999644 167.6778 
L 301.99235 169.6746 
L 303.977762 168.4848 
L 304.970468 169.0236 
L 305.963174 165.8676 
L 306.95588 166.8366 
L 307.948586 166.5192 
L 308.941292 165.7584 
L 309.933998 165.912 
L 310.926703 166.569 
L 311.919409 166.4022 
L 312.912115 165.8844 
L 313.904821 167.1126 
L 314.897527 167.0058 
L 315.890233 167.9088 
L 316.882939 165.6924 
L 317.875645 165.8862 
L 318.868351 165.8772 
L 319.861057 167.1162 
L 320.853763 169.2246 
L 321.846469 167.6562 
L 322.839175 168.3768 
L 323.83188 167.0058 
L 324.824586 168.2358 
L 325.817292 168.5304 
L 326.809998 168.6996 
L 327.802704 166.2306 
L 328.79541 168.4458 
L 329.788116 170.121 
L 330.780822 171.0714 
L 331.773528 171.6498 
L 332.766234 171.0372 
L 333.75894 171.4656 
L 334.751646 172.6356 
L 335.744352 174.6126 
L 336.737057 172.3914 
L 337.729763 170.634 
L 338.722469 171.3786 
L 339.715175 171.3252 
L 340.707881 171.963 
L 341.700587 172.9518 
L 342.693293 173.4258 
L 344.678705 174.027 
L 345.671411 175.8972 
L 346.664117 175.3284 
L 347.656823 176.1576 
L 348.649529 175.3284 
L 349.642234 177.3768 
L 350.63494 177.7818 
L 351.627646 178.5132 
L 352.620352 176.775 
L 353.613058 178.3122 
L 354.605764 178.6536 
L 355.59847 178.5558 
L 356.591176 179.832 
L 357.583882 178.698 
L 358.576588 179.7 
L 359.569294 178.866 
L 360.562 179.4258 
L 361.554706 180.2856 
L 362.547411 179.4114 
L 363.540117 178.9272 
L 364.532823 178.2246 
L 365.525529 178.7226 
L 366.518235 179.6952 
L 367.510941 180.1614 
L 368.503647 179.5146 
L 369.496353 179.6088 
L 370.489059 179.2644 
L 371.481765 178.6026 
L 372.474471 178.5378 
L 373.467177 179.7624 
L 374.459883 181.8666 
L 375.452589 179.7336 
L 376.445294 178.4616 
L 377.438 180.015 
L 378.430706 180.4122 
L 379.423412 178.701 
L 380.416118 178.9542 
L 381.408824 181.7178 
L 382.40153 179.0508 
L 383.394236 179.4402 
L 386.372354 179.6724 
L 387.36506 179.9256 
L 389.350471 176.6826 
L 390.343177 176.241 
L 391.335883 174.4188 
L 392.328589 175.1028 
L 394.314001 173.2098 
L 395.306707 174.6744 
L 396.299413 172.3992 
L 397.292119 174.6834 
L 398.284825 172.7178 
L 399.277531 172.4316 
L 402.255648 170.0028 
L 403.248354 170.7852 
L 404.24106 169.0122 
L 405.233766 166.7538 
L 406.226472 168.8682 
L 407.219178 165.9126 
L 408.211884 166.6524 
L 409.20459 164.8266 
L 410.197296 163.5162 
L 411.190002 162.8172 
L 412.182708 163.4964 
L 413.175414 164.7978 
L 414.16812 163.8312 
L 415.160825 161.9688 
L 417.146237 160.83 
L 418.138943 156.8928 
L 419.131649 154.8018 
L 420.124355 157.9104 
L 421.117061 156.3366 
L 422.109767 156.192 
L 423.102473 155.5044 
L 424.095179 154.2636 
L 425.087885 153.7746 
L 426.080591 154.4928 
L 427.073297 153.9666 
L 428.066002 152.2272 
L 429.058708 150.993 
L 430.051414 151.1994 
L 431.04412 151.581 
L 433.029532 146.709 
L 434.022238 145.8312 
L 435.014944 144.3498 
L 436.00765 144.3516 
L 437.000356 143.946 
L 437.993062 143.3724 
L 438.985768 142.311 
L 439.978474 143.877 
L 440.97118 143.3796 
L 441.963885 142.602 
L 442.956591 139.413 
L 443.949297 139.389 
L 444.942003 139.1718 
L 445.934709 137.166 
L 446.927415 136.113 
L 447.920121 136.0986 
L 448.912827 134.9808 
L 449.905533 135.3534 
L 450.898239 132.5976 
L 451.890945 134.109 
L 452.883651 132.9612 
L 453.876357 133.6278 
L 454.869062 132.3114 
L 455.861768 132.2856 
L 457.84718 129.4722 
L 458.839886 129.6042 
L 459.832592 127.728 
L 460.825298 129.7056 
L 461.818004 127.2606 
L 462.81071 127.5774 
L 463.803416 126.9624 
L 464.796122 124.5786 
L 465.788828 122.5284 
L 466.781534 122.1198 
L 467.774239 122.4768 
L 468.766945 119.0718 
L 469.759651 121.1022 
L 470.752357 121.4406 
L 471.745063 121.5516 
L 472.737769 119.4072 
L 473.730475 118.5726 
L 474.723181 117.138 
L 475.715887 118.7892 
L 476.708593 117.9774 
L 477.701299 116.3256 
L 478.694005 113.9952 
L 479.686711 115.206 
L 480.679416 117.1722 
L 481.672122 114.7206 
L 482.664828 113.3652 
L 483.657534 113.1648 
L 484.65024 112.26 
L 485.642946 110.3304 
L 486.635652 108.738 
L 487.628358 108.6366 
L 488.621064 108.4224 
L 490.606476 105.5388 
L 491.599182 104.3964 
L 492.591888 105.7002 
L 493.584593 105.4914 
L 494.577299 107.2482 
L 495.570005 103.7676 
L 496.562711 104.0874 
L 497.555417 103.0272 
L 498.548123 102.144 
L 499.540829 104.454 
L 500.533535 101.9094 
L 501.526241 101.6226 
L 502.518947 99.2166 
L 503.511653 100.209 
L 504.504359 98.808 
L 505.497065 99.7764 
L 506.489771 99.468 
L 507.482476 99.7578 
L 508.475182 100.6734 
L 509.467888 99.2532 
L 510.460594 99.7974 
L 511.4533 97.848 
L 512.446006 99.8016 
L 513.438712 98.8392 
L 514.431418 96.4986 
L 515.424124 95.4036 
L 516.41683 95.2494 
L 517.409536 96.492 
L 518.402242 95.94 
L 519.394948 93.8166 
L 520.387653 93.525 
L 521.380359 94.1352 
L 522.373065 93.7932 
L 523.365771 92.0358 
L 524.358477 91.9968 
L 525.351183 92.5428 
L 526.343889 91.0452 
L 527.336595 90.3432 
L 528.329301 90.8574 
L 529.322007 88.5288 
L 530.314713 90.18 
L 531.307419 89.7888 
L 532.300125 89.8332 
L 533.29283 89.727 
L 534.285536 87.4296 
L 535.278242 88.4982 
L 536.270948 88.914 
L 537.263654 87.2154 
L 538.25636 88.077 
L 539.249066 89.688 
L 540.241772 87.2256 
L 541.234478 86.6364 
L 542.227184 85.638 
L 543.21989 85.6158 
L 544.212596 85.4238 
L 545.205302 84.2556 
L 546.198007 84.2724 
L 547.190713 83.6472 
L 548.183419 85.0512 
L 549.176125 84.288 
L 550.168831 83.112 
L 551.161537 83.6634 
L 552.154243 82.713 
L 553.146949 83.3016 
L 554.139655 82.854 
L 555.132361 83.0352 
L 556.125067 80.811 
L 557.117773 82.0842 
L 558.110479 81.7314 
L 560.09589 80.1972 
L 561.088596 81.0192 
L 562.081302 80.2578 
L 564.066714 80.9742 
L 565.05942 82.0152 
L 566.052126 81.3642 
L 567.044832 80.8686 
L 568.037538 79.3632 
L 569.030244 79.4886 
L 570.02295 78.57 
L 571.015656 77.9352 
L 572.008362 78.3858 
L 573.001067 78.0108 
L 573.993773 78.5604 
L 574.986479 75.447 
L 575.979185 75.9414 
L 576.971891 75.012 
L 577.964597 75.2208 
L 578.957303 75.9852 
L 581.935421 72.7404 
L 582.928127 73.5564 
L 585.906244 72.8604 
L 586.89895 72.978 
L 587.891656 72.1374 
L 588.884362 70.8426 
L 589.877068 71.6904 
L 590.869774 69.6126 
L 591.86248 71.5662 
L 592.855186 69.5952 
L 593.847892 71.4084 
L 595.833304 68.3694 
L 596.82601 68.7258 
L 597.818716 66.9606 
L 598.811421 66.4776 
L 599.804127 65.5926 
L 600.796833 65.8098 
L 601.789539 64.5636 
L 602.782245 65.9784 
L 603.774951 64.9272 
L 604.767657 62.5782 
L 605.760363 64.7418 
L 606.753069 62.6724 
L 607.745775 64.4484 
L 608.738481 63.636 
L 609.731187 63.5748 
L 610.723893 61.3308 
L 612.709304 61.1682 
L 613.70201 59.868 
L 614.694716 60.5856 
L 615.687422 58.944 
L 616.680128 58.2018 
L 617.672834 57.2322 
L 618.66554 57.3852 
L 619.658246 57.2274 
L 620.650952 57.4692 
L 621.643658 55.923 
L 622.636364 55.0272 
L 622.636364 55.0272 
" clip-path="url(#p87dbe676d0)" style="fill: none; stroke: #1f77b4; stroke-width: 1.5; stroke-linecap: square"/>
   </g>
   <g id="patch_3">
    <path d="M 90 256.32 
L 90 34.56 
" style="fill: none; stroke: #000000; stroke-width: 0.8; stroke-linejoin: miter; stroke-linecap: square"/>
   </g>
   <g id="patch_4">
    <path d="M 648 256.32 
L 648 34.56 
" style="fill: none; stroke: #000000; stroke-width: 0.8; stroke-linejoin: miter; stroke-linecap: square"/>
   </g>
   <g id="patch_5">
    <path d="M 90 256.32 
L 648 256.32 
" style="fill: none; stroke: #000000; stroke-width: 0.8; stroke-linejoin: miter; stroke-linecap: square"/>
   </g>
   <g id="patch_6">
    <path d="M 90 34.56 
L 648 34.56 
" style="fill: none; stroke: #000000; stroke-width: 0.8; stroke-linejoin: miter; stroke-linecap: square"/>
   </g>
   <g id="text_13">
    <!-- Pulse Wave Cycle Visualization -->
    <g transform="translate(235.0755 28.56) scale(0.192 -0.192)">
     <defs>
      <path id="ArialMT-50" d="M 494 0 
L 494 4581 
L 2222 4581 
Q 2678 4581 2919 4538 
Q 3256 4481 3484 4323 
Q 3713 4166 3852 3881 
Q 3991 3597 3991 3256 
Q 3991 2672 3619 2267 
Q 3247 1863 2275 1863 
L 1100 1863 
L 1100 0 
L 494 0 
z
M 1100 2403 
L 2284 2403 
Q 2872 2403 3119 2622 
Q 3366 2841 3366 3238 
Q 3366 3525 3220 3729 
Q 3075 3934 2838 4000 
Q 2684 4041 2272 4041 
L 1100 4041 
L 1100 2403 
z
" transform="scale(0.015625)"/>
      <path id="ArialMT-75" d="M 2597 0 
L 2597 488 
Q 2209 -75 1544 -75 
Q 1250 -75 995 37 
Q 741 150 617 320 
Q 494 491 444 738 
Q 409 903 409 1263 
L 409 3319 
L 972 3319 
L 972 1478 
Q 972 1038 1006 884 
Q 1059 663 1231 536 
Q 1403 409 1656 409 
Q 1909 409 2131 539 
Q 2353 669 2445 892 
Q 2538 1116 2538 1541 
L 2538 3319 
L 3100 3319 
L 3100 0 
L 2597 0 
z
" transform="scale(0.015625)"/>
      <path id="ArialMT-6c" d="M 409 0 
L 409 4581 
L 972 4581 
L 972 0 
L 409 0 
z
" transform="scale(0.015625)"/>
      <path id="ArialMT-73" d="M 197 991 
L 753 1078 
Q 800 744 1014 566 
Q 1228 388 1613 388 
Q 2000 388 2187 545 
Q 2375 703 2375 916 
Q 2375 1106 2209 1216 
Q 2094 1291 1634 1406 
Q 1016 1563 777 1677 
Q 538 1791 414 1992 
Q 291 2194 291 2438 
Q 291 2659 392 2848 
Q 494 3038 669 3163 
Q 800 3259 1026 3326 
Q 1253 3394 1513 3394 
Q 1903 3394 2198 3281 
Q 2494 3169 2634 2976 
Q 2775 2784 2828 2463 
L 2278 2388 
Q 2241 2644 2061 2787 
Q 1881 2931 1553 2931 
Q 1166 2931 1000 2803 
Q 834 2675 834 2503 
Q 834 2394 903 2306 
Q 972 2216 1119 2156 
Q 1203 2125 1616 2013 
Q 2213 1853 2448 1751 
Q 2684 1650 2818 1456 
Q 2953 1263 2953 975 
Q 2953 694 2789 445 
Q 2625 197 2315 61 
Q 2006 -75 1616 -75 
Q 969 -75 630 194 
Q 291 463 197 991 
z
" transform="scale(0.015625)"/>
      <path id="ArialMT-65" d="M 2694 1069 
L 3275 997 
Q 3138 488 2766 206 
Q 2394 -75 1816 -75 
Q 1088 -75 661 373 
Q 234 822 234 1631 
Q 234 2469 665 2931 
Q 1097 3394 1784 3394 
Q 2450 3394 2872 2941 
Q 3294 2488 3294 1666 
Q 3294 1616 3291 1516 
L 816 1516 
Q 847 969 1125 678 
Q 1403 388 1819 388 
Q 2128 388 2347 550 
Q 2566 713 2694 1069 
z
M 847 1978 
L 2700 1978 
Q 2663 2397 2488 2606 
Q 2219 2931 1791 2931 
Q 1403 2931 1139 2672 
Q 875 2413 847 1978 
z
" transform="scale(0.015625)"/>
      <path id="ArialMT-20" transform="scale(0.015625)"/>
      <path id="ArialMT-57" d="M 1294 0 
L 78 4581 
L 700 4581 
L 1397 1578 
Q 1509 1106 1591 641 
Q 1766 1375 1797 1488 
L 2669 4581 
L 3400 4581 
L 4056 2263 
Q 4303 1400 4413 641 
Q 4500 1075 4641 1638 
L 5359 4581 
L 5969 4581 
L 4713 0 
L 4128 0 
L 3163 3491 
Q 3041 3928 3019 4028 
Q 2947 3713 2884 3491 
L 1913 0 
L 1294 0 
z
" transform="scale(0.015625)"/>
      <path id="ArialMT-61" d="M 2588 409 
Q 2275 144 1986 34 
Q 1697 -75 1366 -75 
Q 819 -75 525 192 
Q 231 459 231 875 
Q 231 1119 342 1320 
Q 453 1522 633 1644 
Q 813 1766 1038 1828 
Q 1203 1872 1538 1913 
Q 2219 1994 2541 2106 
Q 2544 2222 2544 2253 
Q 2544 2597 2384 2738 
Q 2169 2928 1744 2928 
Q 1347 2928 1158 2789 
Q 969 2650 878 2297 
L 328 2372 
Q 403 2725 575 2942 
Q 747 3159 1072 3276 
Q 1397 3394 1825 3394 
Q 2250 3394 2515 3294 
Q 2781 3194 2906 3042 
Q 3031 2891 3081 2659 
Q 3109 2516 3109 2141 
L 3109 1391 
Q 3109 606 3145 398 
Q 3181 191 3288 0 
L 2700 0 
Q 2613 175 2588 409 
z
M 2541 1666 
Q 2234 1541 1622 1453 
Q 1275 1403 1131 1340 
Q 988 1278 909 1158 
Q 831 1038 831 891 
Q 831 666 1001 516 
Q 1172 366 1500 366 
Q 1825 366 2078 508 
Q 2331 650 2450 897 
Q 2541 1088 2541 1459 
L 2541 1666 
z
" transform="scale(0.015625)"/>
      <path id="ArialMT-76" d="M 1344 0 
L 81 3319 
L 675 3319 
L 1388 1331 
Q 1503 1009 1600 663 
Q 1675 925 1809 1294 
L 2547 3319 
L 3125 3319 
L 1869 0 
L 1344 0 
z
" transform="scale(0.015625)"/>
      <path id="ArialMT-43" d="M 3763 1606 
L 4369 1453 
Q 4178 706 3683 314 
Q 3188 -78 2472 -78 
Q 1731 -78 1267 223 
Q 803 525 561 1097 
Q 319 1669 319 2325 
Q 319 3041 592 3573 
Q 866 4106 1370 4382 
Q 1875 4659 2481 4659 
Q 3169 4659 3637 4309 
Q 4106 3959 4291 3325 
L 3694 3184 
Q 3534 3684 3231 3912 
Q 2928 4141 2469 4141 
Q 1941 4141 1586 3887 
Q 1231 3634 1087 3207 
Q 944 2781 944 2328 
Q 944 1744 1114 1308 
Q 1284 872 1643 656 
Q 2003 441 2422 441 
Q 2931 441 3284 734 
Q 3638 1028 3763 1606 
z
" transform="scale(0.015625)"/>
      <path id="ArialMT-79" d="M 397 -1278 
L 334 -750 
Q 519 -800 656 -800 
Q 844 -800 956 -737 
Q 1069 -675 1141 -563 
Q 1194 -478 1313 -144 
Q 1328 -97 1363 -6 
L 103 3319 
L 709 3319 
L 1400 1397 
Q 1534 1031 1641 628 
Q 1738 1016 1872 1384 
L 2581 3319 
L 3144 3319 
L 1881 -56 
Q 1678 -603 1566 -809 
Q 1416 -1088 1222 -1217 
Q 1028 -1347 759 -1347 
Q 597 -1347 397 -1278 
z
" transform="scale(0.015625)"/>
      <path id="ArialMT-63" d="M 2588 1216 
L 3141 1144 
Q 3050 572 2676 248 
Q 2303 -75 1759 -75 
Q 1078 -75 664 370 
Q 250 816 250 1647 
Q 250 2184 428 2587 
Q 606 2991 970 3192 
Q 1334 3394 1763 3394 
Q 2303 3394 2647 3120 
Q 2991 2847 3088 2344 
L 2541 2259 
Q 2463 2594 2264 2762 
Q 2066 2931 1784 2931 
Q 1359 2931 1093 2626 
Q 828 2322 828 1663 
Q 828 994 1084 691 
Q 1341 388 1753 388 
Q 2084 388 2306 591 
Q 2528 794 2588 1216 
z
" transform="scale(0.015625)"/>
      <path id="ArialMT-56" d="M 1803 0 
L 28 4581 
L 684 4581 
L 1875 1253 
Q 2019 853 2116 503 
Q 2222 878 2363 1253 
L 3600 4581 
L 4219 4581 
L 2425 0 
L 1803 0 
z
" transform="scale(0.015625)"/>
      <path id="ArialMT-69" d="M 425 3934 
L 425 4581 
L 988 4581 
L 988 3934 
L 425 3934 
z
M 425 0 
L 425 3319 
L 988 3319 
L 988 0 
L 425 0 
z
" transform="scale(0.015625)"/>
      <path id="ArialMT-7a" d="M 125 0 
L 125 456 
L 2238 2881 
Q 1878 2863 1603 2863 
L 250 2863 
L 250 3319 
L 2963 3319 
L 2963 2947 
L 1166 841 
L 819 456 
Q 1197 484 1528 484 
L 3063 484 
L 3063 0 
L 125 0 
z
" transform="scale(0.015625)"/>
      <path id="ArialMT-74" d="M 1650 503 
L 1731 6 
Q 1494 -44 1306 -44 
Q 1000 -44 831 53 
Q 663 150 594 308 
Q 525 466 525 972 
L 525 2881 
L 113 2881 
L 113 3319 
L 525 3319 
L 525 4141 
L 1084 4478 
L 1084 3319 
L 1650 3319 
L 1650 2881 
L 1084 2881 
L 1084 941 
Q 1084 700 1114 631 
Q 1144 563 1211 522 
Q 1278 481 1403 481 
Q 1497 481 1650 503 
z
" transform="scale(0.015625)"/>
      <path id="ArialMT-6f" d="M 213 1659 
Q 213 2581 725 3025 
Q 1153 3394 1769 3394 
Q 2453 3394 2887 2945 
Q 3322 2497 3322 1706 
Q 3322 1066 3130 698 
Q 2938 331 2570 128 
Q 2203 -75 1769 -75 
Q 1072 -75 642 372 
Q 213 819 213 1659 
z
M 791 1659 
Q 791 1022 1069 705 
Q 1347 388 1769 388 
Q 2188 388 2466 706 
Q 2744 1025 2744 1678 
Q 2744 2294 2464 2611 
Q 2184 2928 1769 2928 
Q 1347 2928 1069 2612 
Q 791 2297 791 1659 
z
" transform="scale(0.015625)"/>
      <path id="ArialMT-6e" d="M 422 0 
L 422 3319 
L 928 3319 
L 928 2847 
Q 1294 3394 1984 3394 
Q 2284 3394 2536 3286 
Q 2788 3178 2913 3003 
Q 3038 2828 3088 2588 
Q 3119 2431 3119 2041 
L 3119 0 
L 2556 0 
L 2556 2019 
Q 2556 2363 2490 2533 
Q 2425 2703 2258 2804 
Q 2091 2906 1866 2906 
Q 1506 2906 1245 2678 
Q 984 2450 984 1813 
L 984 0 
L 422 0 
z
" transform="scale(0.015625)"/>
     </defs>
     <use xlink:href="#ArialMT-50"/>
     <use xlink:href="#ArialMT-75" x="66.699219"/>
     <use xlink:href="#ArialMT-6c" x="122.314453"/>
     <use xlink:href="#ArialMT-73" x="144.53125"/>
     <use xlink:href="#ArialMT-65" x="194.53125"/>
     <use xlink:href="#ArialMT-20" x="250.146484"/>
     <use xlink:href="#ArialMT-57" x="277.929688"/>
     <use xlink:href="#ArialMT-61" x="368.564453"/>
     <use xlink:href="#ArialMT-76" x="424.179688"/>
     <use xlink:href="#ArialMT-65" x="474.179688"/>
     <use xlink:href="#ArialMT-20" x="529.794922"/>
     <use xlink:href="#ArialMT-43" x="557.578125"/>
     <use xlink:href="#ArialMT-79" x="629.794922"/>
     <use xlink:href="#ArialMT-63" x="679.794922"/>
     <use xlink:href="#ArialMT-6c" x="729.794922"/>
     <use xlink:href="#ArialMT-65" x="752.011719"/>
     <use xlink:href="#ArialMT-20" x="807.626953"/>
     <use xlink:href="#ArialMT-56" x="835.410156"/>
     <use xlink:href="#ArialMT-69" x="900.359375"/>
     <use xlink:href="#ArialMT-73" x="922.576172"/>
     <use xlink:href="#ArialMT-75" x="972.576172"/>
     <use xlink:href="#ArialMT-61" x="1028.191406"/>
     <use xlink:href="#ArialMT-6c" x="1083.806641"/>
     <use xlink:href="#ArialMT-69" x="1106.023438"/>
     <use xlink:href="#ArialMT-7a" x="1128.240234"/>
     <use xlink:href="#ArialMT-61" x="1178.240234"/>
     <use xlink:href="#ArialMT-74" x="1233.855469"/>
     <use xlink:href="#ArialMT-69" x="1261.638672"/>
     <use xlink:href="#ArialMT-6f" x="1283.855469"/>
     <use xlink:href="#ArialMT-6e" x="1339.470703"/>
    </g>
   </g>
  </g>
 </g>
 <defs>
  <clipPath id="p87dbe676d0">
   <rect x="90" y="34.56" width="558" height="221.76"/>
  </clipPath>
 </defs>
</svg>
